<svg width="17" height="19" viewBox="0 0 17 19" fill="none" xmlns="http://www.w3.org/2000/svg">
<path d="M5.78247 6.34917H7.01324V15.368H5.78247V6.34917Z" fill="#05054B"/>
<path d="M8.24402 6.34917H9.47479V15.368H8.24402V6.34917Z" fill="#05054B"/>
<path d="M10.7056 6.34917H11.9363V15.368H10.7056V6.34917Z" fill="#05054B"/>
<path d="M0.859375 2.96712H16.8594V4.09447H0.859375V2.96712Z" fill="#05054B"/>
<path d="M11.8953 3.53079H10.7466V2.40344C10.7466 2.06524 10.4594 1.80219 10.0902 1.80219H7.62861C7.25938 1.80219 6.9722 2.06524 6.9722 2.40344V3.53079H5.82349V2.40344C5.82349 1.50156 6.644 0.75 7.62861 0.75H10.0902C11.0748 0.75 11.8953 1.50156 11.8953 2.40344V3.53079Z" fill="#05054B"/>
<path d="M12.5517 18.75H5.16713C4.18252 18.75 3.32098 17.9984 3.23893 17.0966L2.09021 3.56837L3.32098 3.49321L4.4697 17.0214C4.51072 17.3596 4.83893 17.6226 5.16713 17.6226H12.5517C12.921 17.6226 13.2492 17.322 13.2492 17.0214L14.3979 3.49321L15.6287 3.56837L14.48 17.0966C14.3979 18.036 13.5364 18.75 12.5517 18.75Z" fill="#05054B"/>
</svg>
