<svg width="40" height="44" viewBox="0 0 40 44" fill="none" xmlns="http://www.w3.org/2000/svg">
<path d="M20 19.8249C18.877 19.8249 17.797 19.5729 17.036 19.1339L3.325 11.2169C2.735 10.8759 2.396 10.4629 2.396 10.0829C2.396 9.70392 2.735 9.28992 3.325 8.94992L17.036 1.03292C17.797 0.593919 18.877 0.341919 20 0.341919C21.123 0.341919 22.203 0.593919 22.964 1.03292L36.675 8.94992C37.265 9.28992 37.604 9.70392 37.604 10.0829C37.604 10.4629 37.265 10.8759 36.675 11.2169L22.964 19.1329C22.203 19.5729 21.123 19.8249 20 19.8249Z" fill="white"/>
<path d="M17.909 43.302C17.609 43.302 17.25 43.186 16.87 42.967L3.15803 35.05C1.55103 34.123 0.194031 31.772 0.194031 29.916V14.084C0.194031 13.642 0.284031 12.614 1.11903 12.614C1.41803 12.614 1.77803 12.73 2.15803 12.95L15.869 20.866C17.475 21.794 18.833 24.145 18.833 26V41.833C18.833 42.35 18.721 42.774 18.518 43.028C18.368 43.215 18.174 43.302 17.909 43.302Z" fill="white"/>
<path d="M21.925 43.302C21.09 43.302 21 42.275 21 41.833V26C21 24.145 22.357 21.794 23.964 20.866L37.675 12.95C38.055 12.73 38.415 12.614 38.714 12.614C39.549 12.614 39.639 13.642 39.639 14.084V29.916C39.639 31.771 38.282 34.123 36.675 35.05L22.964 42.967C22.584 43.186 22.225 43.302 21.925 43.302Z" fill="white"/>
<path d="M20 11.5C18.735 11.5 17.667 10.852 17.667 10.084C17.667 9.31599 18.736 8.66699 20 8.66699C21.264 8.66699 22.333 9.31599 22.333 10.084C22.333 10.852 21.265 11.5 20 11.5Z" fill="#1B3B47"/>
<path d="M3.14604 32.368C2.37804 32.368 1.73004 31.417 1.73004 30.292C1.73004 29.167 2.37804 28.215 3.14604 28.215C3.91404 28.215 4.56204 29.166 4.56204 30.292C4.56204 31.418 3.91304 32.368 3.14604 32.368Z" fill="#1B3B47"/>
<path d="M36.354 32.368C35.586 32.368 34.938 31.417 34.938 30.292C34.938 29.167 35.586 28.215 36.354 28.215C37.122 28.215 37.7701 29.166 37.7701 30.292C37.7701 31.418 37.122 32.368 36.354 32.368Z" fill="#1B3B47"/>
<path d="M3.14604 20.431C2.37804 20.431 1.73004 19.48 1.73004 18.355C1.73004 17.229 2.37804 16.278 3.14604 16.278C3.91404 16.278 4.56204 17.229 4.56204 18.355C4.56204 19.48 3.91304 20.431 3.14604 20.431Z" fill="#1B3B47"/>
<path d="M14.917 28.118C14.149 28.118 13.501 27.167 13.501 26.041C13.501 24.915 14.149 23.964 14.917 23.964C15.685 23.964 16.334 24.915 16.334 26.041C16.333 27.167 15.685 28.118 14.917 28.118Z" fill="#1B3B47"/>
<path d="M24.959 28.118C24.191 28.118 23.543 27.167 23.543 26.041C23.543 24.915 24.191 23.964 24.959 23.964C25.727 23.964 26.376 24.915 26.376 26.041C26.375 27.167 25.726 28.118 24.959 28.118Z" fill="#1B3B47"/>
<path d="M14.917 39.139C14.149 39.139 13.501 38.188 13.501 37.062C13.501 35.936 14.149 34.985 14.917 34.985C15.685 34.985 16.334 35.936 16.334 37.062C16.334 38.188 15.685 39.139 14.917 39.139Z" fill="#1B3B47"/>
</svg>
